#!OML:ASF F:\VICON\USERDATA\INSTALL\rory3\rory3.ASF
:FULLY-SPECIFIED
:DEGREES
1633
root -0.539038 17.4362 -1.23444 18.0406 -0.100039 3.4182
lowerback 11.8851 -0.937234 6.30828
upperback -2.89096 0.351098 6.51089
thorax -9.87304 0.0265756 3.42281
lowerneck 2.25134 -7.03506 -14.8932
upperneck 4.34723 -9.87822 8.82767
head 2.10461 -5.05903 4.83756
rclavicle 2.62396e-014 -9.54166e-015
rhumerus 81.585 -29.3257 -46.5146
rradius 121.964
rwrist 17.9243
rhand 11.1266 6.94941
rfingers 7.12502
rthumb 36.1941 -19.3192
lclavicle 2.62396e-014 -9.54166e-015
lhumerus 65.5755 23.8773 68.6271
lradius 136.646
lwrist -14.335
lhand -25.3654 38.8894
lfingers 7.12502
lthumb 1.15867 68.866
rfemur -29.6802 11.2113 12.7986
rtibia 24.2215
rfoot -11.1474 -12.0334
rtoes -25.8926
lfemur -25.1608 -17.516 -13.1058
ltibia 15.0463
lfoot -8.58812 14.2536
ltoes -22.9606
1634
root -0.561125 17.4335 -1.23604 18.137 -0.244199 3.35631
lowerback 11.8435 -0.967253 6.24147
upperback -2.92965 0.294233 6.46047
thorax -9.88979 0.000840272 3.41709
lowerneck 2.32562 -7.02848 -15.0677
upperneck 4.12762 -9.88147 8.99165
head 2.04436 -5.05976 4.92106
rclavicle 7.95139e-016 3.81667e-014
rhumerus 81.6841 -29.3582 -46.5407
rradius 121.91
rwrist 17.9327
rhand 11.1718 6.9972
rfingers 7.12502
rthumb 36.2369 -19.2608
lclavicle 7.95139e-016 3.81667e-014
lhumerus 64.8171 23.5147 70.0125
lradius 136.912
lwrist -14.3724
lhand -26.469 38.2801
lfingers 7.12502
lthumb 0.0927708 68.2598
rfemur -29.8304 11.3344 12.889
rtibia 24.2568
rfoot -11.2252 -11.9733
rtoes -25.5094
lfemur -25.3083 -17.2414 -12.9994
ltibia 15.1871
lfoot -8.73662 14.1693
ltoes -22.6731
1635
root -0.583149 17.4313 -1.23678 18.2389 -0.382542 3.29066
lowerback 11.8136 -1.00531 6.2084
upperback -2.96991 0.233303 6.40951
thorax -9.91519 -0.0289403 3.39316
lowerneck 2.08069 -6.97994 -15.1165
upperneck 4.1378 -9.78242 8.98559
head 2.07713 -5.00623 4.92147
rclavicle -1.51076e-014 1.17681e-013
rhumerus 81.7481 -29.3672 -46.5526
rradius 121.892
rwrist 17.9648
rhand 11.0021 7.09167
rfingers 7.12502
rthumb 36.0762 -19.2061
lclavicle -1.51076e-014 1.17681e-013
lhumerus 63.9982 23.2346 71.3061
lradius 137.189
lwrist -14.2773
lhand -27.5499 38.6675
lfingers 7.12502
lthumb -0.951236 68.6452
rfemur -29.9622 11.4195 12.9889
rtibia 24.2849
rfoot -11.3634 -11.874
rtoes -24.8394
lfemur -25.4517 -16.9831 -12.8847
ltibia 15.3166
lfoot -8.80383 14.0956
ltoes -22.3773
1636
root -0.602773 17.4306 -1.23591 18.3231 -0.488077 3.17246
lowerback 11.7696 -1.05876 6.31561
upperback -2.99445 0.168164 6.33201
thorax -9.91537 -0.0698793 3.26109
lowerneck 1.59421 -6.87175 -14.8111
upperneck 4.29161 -9.55749 8.65812
head 2.14405 -4.88573 4.76369
rclavicle -4.77083e-015 1.27222e-014
rhumerus 81.7835 -29.404 -46.5946
rradius 121.906
rwrist 17.9928
rhand 10.7291 7.01501
rfingers 7.12502
rthumb 35.8175 -19.3461
lclavicle -4.77083e-015 1.27222e-014
lhumerus 63.0863 22.9188 72.4775
lradius 137.458
lwrist -14.224
lhand -28.5872 39.5083
lfingers 7.12502
lthumb -1.95305 69.4791
rfemur -30.0967 11.4445 13.1716
rtibia 24.3375
rfoot -11.3225 -11.7552
rtoes -25.1251
lfemur -25.5414 -16.7635 -12.7286
ltibia 15.4038
lfoot -8.79747 14.0782
ltoes -22.7861
1637
root -0.624357 17.4304 -1.23359 18.4113 -0.676717 3.25186
lowerback 11.682 -1.09819 6.14922
upperback -2.9753 0.0647619 6.19644
thorax -9.83823 -0.114061 3.22246
lowerneck 1.05457 -6.75852 -14.4387
upperneck 4.42244 -9.32021 8.3386
head 2.21004 -4.75714 4.59774
rclavicle 1.19271e-014 -1.90833e-014
rhumerus 81.9672 -29.4949 -46.8143
rradius 121.925
rwrist 17.9889
rhand 10.4248 6.97338
rfingers 7.12502
rthumb 35.5291 -19.4574
lclavicle 1.19271e-014 -1.90833e-014
lhumerus 62.1663 22.6607 73.6067
lradius 137.835
lwrist -14.0975
lhand -30.0617 39.3219
lfingers 7.12502
lthumb -3.37709 69.2749
rfemur -30.2548 11.5495 13.0903
rtibia 24.3986
rfoot -11.371 -11.6895
rtoes -25.1351
lfemur -25.6192 -16.5468 -12.802
ltibia 15.4743
lfoot -8.74646 14.0577
ltoes -23.3643
1638
root -0.646302 17.4285 -1.23348 18.4745 -0.898594 3.34741
lowerback 11.6816 -1.12719 5.88507
upperback -2.96955 -0.0234262 6.11722
thorax -9.82738 -0.143636 3.3011
lowerneck 0.657877 -6.62683 -14.4066
upperneck 4.44605 -9.08795 8.29133
head 2.25114 -4.63424 4.57493
rclavicle 3.4191e-014 6.36111e-015
rhumerus 82.2174 -29.571 -46.9851
rradius 121.942
rwrist 17.8568
rhand 10.5344 6.86616
rfingers 7.12502
rthumb 35.633 -19.5397
lclavicle 3.4191e-014 6.36111e-015
lhumerus 61.0867 22.4334 74.7534
lradius 138.391
lwrist -13.8286
lhand -31.4617 38.6462
lfingers 7.12502
lthumb -4.72901 68.5734
rfemur -30.4085 11.7173 12.9724
rtibia 24.4575
rfoot -11.4249 -11.6177
rtoes -24.7112
lfemur -25.673 -16.2944 -12.9028
ltibia 15.5405
lfoot -8.80103 14.002
ltoes -23.6595
1639
root -0.668928 17.4268 -1.23326 18.5102 -1.01794 3.31614
lowerback 11.7403 -1.20717 5.72563
upperback -2.97326 -0.149412 6.11317
thorax -9.86263 -0.195061 3.41397
lowerneck 0.120793 -6.46359 -14.2395
upperneck 4.54868 -8.78826 8.0411
head 2.31633 -4.47767 4.46683
rclavicle 5.56597e-015 6.36111e-015
rhumerus 82.4992 -29.5818 -47.1731
rradius 121.977
rwrist 17.7151
rhand 10.6196 6.70573
rfingers 7.12502
rthumb 35.7138 -19.6806
lclavicle 5.56597e-015 6.36111e-015
lhumerus 59.7725 22.171 75.6638
lradius 138.923
lwrist -13.8873
lhand -31.7579 38.7481
lfingers 7.12502
lthumb -5.015 68.6688
rfemur -30.508 11.8543 13.044
rtibia 24.5179
rfoot -11.4248 -11.6044
rtoes -24.6697
lfemur -25.7212 -16.0364 -12.8547
ltibia 15.6399
lfoot -8.88028 13.8978
ltoes -23.6915
1640
root -0.689905 17.4247 -1.23485 18.5887 -1.13202 3.25431
lowerback 11.7301 -1.294 5.6695
upperback -2.97382 -0.281681 6.04947
thorax -9.85403 -0.257666 3.40211
lowerneck -0.267148 -6.3378 -14.064
upperneck 4.52383 -8.56415 7.94531
head 2.33505 -4.35704 4.40872
rclavicle 2.06736e-014 2.22639e-014
rhumerus 82.7253 -29.6355 -47.4531
rradius 122.017
rwrist 17.6075
rhand 10.5601 6.70344
rfingers 7.12502
rthumb 35.6574 -19.6965
lclavicle 2.06736e-014 2.22639e-014
lhumerus 58.3729 21.7373 76.4489
lradius 139.38
lwrist -14.2231
lhand -31.813 38.7601
lfingers 7.12502
lthumb -5.06816 68.6795
rfemur -30.6522 11.9329 13.1507
rtibia 24.5579
rfoot -11.421 -11.5376
rtoes -24.7063
lfemur -25.8682 -15.7271 -12.7699
ltibia 15.8141
lfoot -8.98042 13.6894
ltoes -23.1194
1641
root -0.710081 17.4212 -1.23801 18.7223 -1.23678 3.10877
lowerback 11.6215 -1.38712 5.67579
upperback -2.95488 -0.420115 6.03209
thorax -9.76692 -0.324937 3.40221
lowerneck -0.636469 -6.22474 -14.0733
upperneck 4.43284 -8.36319 8.01816
head 2.34907 -4.24721 4.43168
rclavicle 8.74653e-015 2.38542e-014
rhumerus 83.0545 -29.6434 -47.7607
rradius 122.081
rwrist 17.451
rhand 10.5616 6.72329
rfingers 7.12502
rthumb 35.6588 -19.6763
lclavicle 8.74653e-015 2.38542e-014
lhumerus 57.0363 21.3226 77.3672
lradius 139.825
lwrist -14.2344
lhand -32.2292 37.9843
lfingers 7.12502
lthumb -5.47006 67.8937
rfemur -30.8407 12.004 13.336
rtibia 24.5504
rfoot -11.4239 -11.4369
rtoes -24.9545
lfemur -26.1137 -15.3981 -12.5833
ltibia 16.0523
lfoot -9.02278 13.5496
ltoes -23.1558
